# xmcd CD database file
#
# Track frame offsets:
#	150
#	19642
#	30030
#	41888
#	52572
#	64782
#	77461
#	98690
#	111300
#	124588
#	160385
#	171480
#	182514
#	194456
#	206561
#	222807
#	235146
#	250307
#
# Disc length: 3525 seconds
#
# Revision: 1
# Processed by: cddbd v1.5.2PL0 Copyright (c) Steve Scherf et al.
# Submitted via: CDex 1.51
#
DISCID=e60dc312
DTITLE=Various Artist - Easy Beatles
DYEAR=2008
DGENRE=Rock
TTITLE0=The Assembled Multitude - I Want You (She's So Heavy)
TTITLE1=Gary McFarland - She Loves You
TTITLE2=The Harvey Averne Dozen - The Word
TTITLE3=Nancy Wilson - And I Love Him
TTITLE4=Earl Grant - A Hard Day's Night
TTITLE5=Gershon Kingsley - Paperback Writer
TTITLE6=Shirley Scott and The Soul Saxes - Get Back
TTITLE7=Ella Fitzgerald - Savoy Truffle
TTITLE8=The Sandpipers - Things We Said Today
TTITLE9=Clarence Wheeler and The Enforcers -  Hey Jude
TTITLE10=Helmut Zacharias - Can't Buy Me Love
TTITLE11=Sammy Kaye - Eight Days A Week
TTITLE12=Nancy Ames - I Feel Fine
TTITLE13=The Brothers Four - We Can Work It Out
TTITLE14=Wade Marcus - Something
TTITLE15=Arif Mardin - Glass Union
TTITLE16=Dick Hyman - Love Me Do
TTITLE17=The Lettermen - I'm Only Sleeping
EXTD=YEAR: 2008
EXTT0=
EXTT1=
EXTT2=
EXTT3=
EXTT4=
EXTT5=
EXTT6=
EXTT7=
EXTT8=
EXTT9=
EXTT10=
EXTT11=
EXTT12=
EXTT13=
EXTT14=
EXTT15=
EXTT16=
EXTT17=
PLAYORDER=
